<?xml version="1.0" standalone="no"?>
<!DOCTYPE svg PUBLIC "-//W3C//DTD SVG 20010904//EN"
 "http://www.w3.org/TR/2001/REC-SVG-20010904/DTD/svg10.dtd">
<svg version="1.0" xmlns="http://www.w3.org/2000/svg"
 width="1657.000000pt" height="1353.000000pt" viewBox="0 0 1657.000000 1353.000000"
 preserveAspectRatio="xMidYMid meet">
<metadata>
Created by potrace 1.16, written by Peter Selinger 2001-2019
</metadata>
<g transform="translate(0.000000,1353.000000) scale(0.100000,-0.100000)"
fill="#000000" stroke="none">
<path d="M0 9015 l0 -4514 37 -10 c21 -6 43 -11 48 -11 6 0 21 -9 35 -19 l24
-19 -29 1 c-17 0 -49 0 -72 -1 l-43 -2 0 -2220 0 -2220 8285 0 8285 0 0 6765
0 6765 -8285 0 -8285 0 0 -4515z m8614 -1111 c17 -45 -41 -104 -105 -104 -19
-1 -52 -9 -74 -20 -47 -23 -107 -27 -99 -7 5 14 51 39 106 58 26 9 42 23 53
45 17 37 26 42 76 43 25 1 39 -4 43 -15z m-450 -119 c-3 -16 -10 -31 -15 -33
-5 -2 -9 -14 -9 -27 0 -36 -129 -165 -165 -165 -27 0 -27 1 -20 43 4 23 7 52
6 65 0 12 4 22 9 22 6 0 30 20 54 45 25 25 48 45 54 45 5 0 17 9 27 20 10 11
28 19 42 18 21 -2 23 -6 17 -33z m-313 -328 c-5 -5 -7 -15 -5 -21 3 -7 -3 -32
-13 -57 -19 -46 -21 -70 -9 -132 4 -23 3 -37 -4 -37 -5 0 -10 -8 -10 -17 -1
-20 -33 -63 -48 -63 -5 0 -17 -18 -27 -40 -10 -22 -22 -40 -27 -40 -4 0 -8 -6
-8 -13 0 -8 -9 -22 -20 -32 -11 -10 -20 -28 -20 -41 0 -13 -12 -35 -27 -48
l-27 -26 -28 30 c-27 30 -58 32 -58 4 0 -8 -6 -11 -15 -8 -9 4 -15 0 -15 -10
0 -10 -9 -16 -25 -16 -14 0 -25 -4 -25 -10 0 -5 -7 -10 -15 -10 -8 0 -15 6
-15 14 0 7 7 19 15 26 8 7 15 19 15 26 0 8 5 14 10 14 6 0 10 4 10 10 0 16 51
85 62 82 5 -1 7 2 3 8 -3 5 6 22 20 37 14 16 41 60 61 99 19 39 53 92 75 119
21 26 39 51 39 55 0 5 6 15 13 22 7 7 23 30 36 50 12 21 34 47 49 58 l26 21 8
-22 c5 -13 5 -26 -1 -32z m5974 -189 c-4 -13 -9 -31 -11 -40 -4 -14 1 -18 23
-18 24 0 33 -7 47 -37 12 -25 14 -39 7 -41 -28 -9 0 -66 30 -60 7 2 15 -6 17
-17 2 -11 13 -28 23 -38 26 -24 24 -97 -3 -97 -5 0 -7 4 -4 9 8 13 -4 42 -15
36 -4 -3 -6 -27 -3 -53 3 -26 1 -58 -5 -72 -7 -18 -10 -20 -10 -7 -1 23 -34
22 -56 -3 -10 -11 -25 -20 -33 -20 -14 0 -13 -24 3 -62 5 -13 3 -18 -9 -18
-11 0 -16 9 -16 30 0 17 -5 30 -11 30 -19 0 -39 28 -39 57 0 16 -9 53 -20 83
-11 30 -20 69 -20 87 0 18 -5 33 -11 33 -14 0 -2 153 12 158 5 2 9 15 9 30 0
20 3 23 12 14 20 -20 48 -14 60 13 14 31 32 33 23 3z m-13369 -603 c-3 -8 0
-15 7 -15 18 0 19 -36 1 -51 -8 -6 -14 -23 -14 -36 0 -21 -4 -24 -23 -19 -12
3 -35 -1 -51 -9 -16 -8 -35 -15 -42 -15 -8 0 -14 -4 -14 -10 0 -5 -12 -13 -27
-16 -16 -4 -34 -11 -40 -17 -9 -6 -13 -6 -13 2 0 6 -9 11 -20 11 -21 0 -27 15
-10 25 5 3 10 17 10 31 0 13 5 24 10 24 6 0 10 6 10 13 0 8 11 20 25 27 13 7
27 21 30 31 4 12 20 20 48 23 23 3 53 7 67 10 49 7 52 6 46 -9z m9394 -63 c0
-4 -18 -36 -41 -71 -22 -34 -54 -92 -70 -129 -17 -37 -36 -74 -44 -82 -7 -8
-20 -37 -30 -65 -9 -27 -29 -66 -45 -87 -16 -20 -37 -56 -46 -80 -9 -23 -19
-52 -24 -63 -4 -11 -14 -36 -21 -55 -7 -19 -16 -37 -20 -40 -13 -10 -69 -178
-69 -208 0 -18 -4 -32 -10 -32 -5 0 -10 -28 -12 -62 l-3 -62 -59 -23 c-33 -12
-82 -35 -110 -49 -69 -36 -206 -144 -247 -195 -19 -23 -41 -48 -49 -57 -8 -8
-23 -27 -32 -41 -10 -14 -18 -21 -18 -16 0 6 11 27 25 47 14 20 25 39 25 43 0
3 29 49 65 103 36 53 74 111 84 127 11 17 61 95 111 175 51 80 102 165 113
190 11 25 23 47 27 50 15 11 108 147 114 168 8 25 7 26 -31 10 -15 -6 -32 -10
-37 -9 -4 1 -14 -3 -21 -9 -19 -15 -115 -25 -115 -12 0 6 4 13 9 17 13 7 9 96
-4 92 -5 -2 -13 -19 -17 -38 -17 -85 -19 -87 -55 -94 -38 -7 -53 -1 -36 16 11
11 5 59 -7 59 -9 0 -22 -36 -24 -65 -1 -13 -11 -21 -33 -26 -38 -7 -56 2 -47
24 5 13 2 16 -10 11 -10 -4 -15 -13 -12 -21 3 -7 0 -16 -7 -19 -20 -7 -257
-45 -307 -48 -48 -3 -84 -11 -100 -21 -6 -4 -31 -7 -55 -7 -25 0 -47 -4 -51
-9 -3 -5 -14 -9 -25 -9 -11 0 -52 -21 -91 -46 -44 -28 -77 -43 -87 -39 -14 6
-14 8 2 19 9 7 17 18 17 25 0 16 -33 14 -56 -4 -10 -8 -34 -15 -51 -15 -18 0
-33 -4 -33 -10 0 -5 -9 -10 -20 -10 -11 0 -20 -4 -20 -9 0 -10 -43 -24 -77
-26 -30 -1 -42 -15 -14 -15 12 0 19 -4 16 -10 -3 -5 -13 -10 -21 -10 -9 0 -22
-7 -31 -16 -9 -8 -22 -13 -29 -10 -7 3 -16 1 -19 -4 -4 -6 3 -10 14 -10 12 0
21 -4 21 -10 0 -5 -6 -10 -13 -10 -21 0 -63 -23 -73 -40 -37 -65 -55 -121 -74
-225 -20 -116 -27 -140 -56 -196 -8 -15 -21 -58 -30 -95 -8 -38 -19 -73 -23
-79 -4 -5 -16 -39 -26 -75 -10 -36 -23 -83 -30 -105 -7 -22 -18 -69 -25 -105
-6 -36 -18 -85 -26 -110 -7 -25 -25 -108 -40 -185 -15 -77 -32 -149 -37 -160
-6 -11 -10 -28 -8 -38 1 -10 -4 -26 -12 -35 -8 -10 -18 -37 -22 -62 -9 -52
-75 -157 -75 -119 0 26 28 162 40 194 17 44 50 213 50 251 0 23 6 47 14 53 7
6 16 37 20 69 3 31 9 67 12 80 5 18 3 21 -10 16 -14 -6 -17 0 -14 36 1 30 -3
46 -15 55 -14 10 -16 23 -11 84 4 56 3 71 -8 71 -10 0 -13 35 -13 174 0 96 -3
178 -7 182 -13 12 -47 -27 -60 -67 -6 -21 -15 -36 -19 -33 -5 3 -9 0 -9 -7 0
-7 -2 -10 -5 -7 -8 8 56 129 72 135 7 3 13 11 13 17 0 53 102 180 168 209 15
6 62 38 106 70 43 31 140 87 215 123 75 36 163 79 196 95 33 16 64 29 69 29 4
0 22 6 39 14 34 15 161 57 552 182 132 42 292 93 355 114 63 21 198 62 300 90
133 38 190 58 203 74 36 41 62 76 111 146 49 69 56 78 56 62z m-2503 -22 c19
-23 15 -69 -12 -144 -14 -38 -25 -77 -25 -87 0 -11 -7 -19 -15 -19 -8 0 -15
-5 -15 -11 0 -41 -101 -199 -128 -199 -5 0 -15 -7 -22 -15 -7 -8 -19 -15 -28
-15 -9 0 -25 -9 -37 -20 -20 -19 -112 -43 -127 -34 -13 9 -9 52 7 68 8 8 15
19 15 23 0 17 48 109 64 122 9 7 16 19 16 25 1 24 81 126 168 211 23 24 42 47
42 52 0 6 9 22 21 36 22 29 56 32 76 7z m2165 -1103 c-5 -15 18 -36 34 -30 9
3 14 -2 14 -15 0 -30 -16 -36 -40 -12 -29 29 -44 25 -76 -22 -15 -24 -33 -47
-38 -53 -22 -20 -99 -129 -140 -195 -22 -37 -80 -127 -128 -199 -112 -169
-110 -164 -113 -236 -3 -57 -33 -150 -53 -165 -5 -3 -21 -27 -37 -55 -28 -49
-39 -64 -100 -125 -59 -60 -175 -126 -175 -100 0 20 43 89 72 115 36 33 50 53
71 100 8 17 21 36 30 44 10 7 17 20 17 27 0 8 4 14 9 14 5 0 15 17 21 38 16
53 61 142 71 142 5 0 9 9 9 19 0 23 57 111 71 111 5 0 9 9 9 20 0 11 6 19 13
18 7 -2 13 9 15 25 2 15 8 27 13 27 5 0 15 12 22 28 15 35 32 52 51 52 14 0
46 51 46 74 0 6 14 26 30 44 16 19 35 47 42 63 7 16 21 32 30 35 10 3 18 13
18 23 0 10 25 44 55 76 30 32 55 64 55 70 0 7 9 24 20 38 13 16 16 28 10 32
-5 3 -10 14 -10 25 0 15 5 13 33 -13 17 -16 31 -34 29 -40z m-5492 -267 c16
-21 32 -30 51 -30 30 0 38 -20 20 -48 -6 -10 -10 -9 -14 7 -6 24 -39 27 -100
10 -31 -8 -38 -14 -35 -32 2 -17 13 -24 43 -31 63 -13 87 -25 92 -46 3 -11 9
-18 13 -15 4 3 19 -4 33 -15 14 -11 30 -20 36 -20 5 0 16 -9 23 -19 8 -11 35
-29 61 -42 26 -13 47 -27 47 -31 0 -4 14 -8 30 -8 17 0 30 -4 30 -10 0 -5 12
-13 26 -16 15 -4 51 -20 80 -36 30 -15 74 -31 98 -34 81 -11 29 -44 -97 -61
-39 -5 -97 12 -97 29 0 6 -8 7 -17 4 -10 -4 -14 -4 -11 0 8 8 -59 44 -81 44
-23 0 -161 70 -228 117 -34 24 -66 43 -71 43 -4 0 -26 13 -48 30 -21 16 -43
30 -47 30 -5 0 -21 8 -35 19 -15 10 -38 22 -52 26 -14 4 -32 13 -40 20 -17 15
-92 44 -132 52 -15 3 -25 9 -22 14 3 5 -4 9 -15 9 -12 0 -21 6 -21 14 0 11 18
14 88 14 48 -1 98 2 112 6 19 6 21 5 10 -3 -19 -14 -9 -14 27 0 23 8 162 34
209 38 6 1 21 -12 34 -29z m3346 -102 c-21 -112 -31 -354 -16 -393 8 -21 8
-31 1 -33 -6 -2 -11 -22 -11 -43 0 -27 4 -38 11 -33 8 5 9 2 1 -12 -7 -12 -7
-27 0 -43 6 -16 7 -74 3 -148 -7 -114 -8 -121 -25 -110 -17 10 -18 31 -19 252
0 256 -4 297 -27 288 -15 -6 -19 8 -6 23 5 5 16 29 25 54 15 42 22 73 59 249
19 93 22 48 4 -51z m-3870 76 c22 -4 31 -10 27 -20 -3 -8 -8 -12 -13 -9 -4 2
-16 -2 -26 -10 -10 -8 -29 -15 -41 -15 -13 0 -23 -6 -23 -14 0 -8 -22 -28 -50
-46 -27 -17 -52 -40 -55 -50 -6 -17 -7 -17 -29 3 -12 12 -22 25 -22 29 1 10
-85 98 -96 98 -5 0 -21 9 -34 19 -17 13 -20 21 -12 25 16 6 331 -2 374 -10z
m5381 -56 c-26 -60 -77 -199 -77 -211 0 -7 -9 -23 -20 -37 -11 -14 -20 -35
-20 -47 0 -15 -5 -21 -14 -17 -8 3 -13 0 -13 -8 1 -12 -39 -106 -78 -181 -8
-16 -15 -35 -15 -43 0 -8 -3 -14 -8 -14 -4 0 -13 -19 -20 -42 -7 -24 -29 -76
-48 -117 -22 -46 -31 -77 -25 -80 17 -11 -9 -81 -30 -81 -10 0 -20 8 -22 18
-4 14 -5 13 -6 -4 -1 -20 -37 -44 -66 -44 -9 0 -15 -10 -15 -25 0 -14 -4 -25
-10 -25 -5 0 -10 8 -10 18 0 13 -9 17 -35 18 -19 0 -35 -3 -35 -6 0 -15 -37
-48 -75 -69 -22 -12 -47 -25 -55 -30 -25 -15 -97 -34 -107 -28 -17 11 -143
-11 -188 -33 -33 -16 -55 -20 -78 -16 -18 4 -45 6 -61 6 -28 -1 -29 0 -13 18
9 10 17 23 17 29 0 6 31 38 69 70 39 32 73 66 76 75 3 10 22 25 41 34 19 9 48
30 65 45 17 16 33 29 35 29 7 0 50 47 67 73 13 20 24 26 36 22 21 -6 86 49 76
65 -9 14 8 13 24 -2 8 -8 11 -8 8 -2 -4 7 4 19 18 28 14 9 25 25 25 36 0 15 7
20 24 20 15 0 27 7 30 18 4 11 18 29 31 42 23 22 25 22 25 4 1 -18 1 -18 14
-1 7 9 20 17 28 17 8 0 25 12 39 26 23 25 55 43 72 40 4 0 16 14 27 32 11 17
24 32 30 32 5 0 10 7 10 15 0 8 6 15 14 15 8 0 17 8 21 18 6 20 71 113 103
147 10 11 24 32 32 47 7 16 16 26 18 23 3 -2 14 14 26 38 41 82 75 117 43 45z
m1860 -352 c-3 -7 0 -19 6 -25 8 -8 7 -11 -3 -11 -13 0 -13 -2 -1 -9 10 -6 13
-32 13 -95 0 -47 -3 -94 -6 -104 -3 -10 -32 -33 -64 -52 -31 -18 -65 -40 -75
-48 -9 -9 -26 -20 -36 -26 -18 -10 -145 -93 -297 -193 -85 -57 -112 -80 -225
-195 -52 -54 -98 -98 -102 -98 -3 0 3 15 14 34 17 29 18 35 5 46 -12 9 -25 8
-63 -6 -62 -22 -73 -32 -90 -73 -11 -25 -19 -32 -34 -28 -20 5 -26 -7 -9 -18
18 -11 11 -25 -13 -25 -27 0 -42 -45 -53 -160 -5 -57 -11 -78 -25 -88 -11 -7
-19 -20 -19 -28 0 -8 -4 -14 -10 -14 -5 0 -10 11 -10 25 0 27 -14 34 -23 11
-9 -23 -47 -26 -68 -5 -10 10 -23 19 -29 19 -5 0 -10 18 -10 40 0 22 -4 40
-10 40 -5 0 -7 7 -4 15 4 8 10 15 15 15 5 0 9 -7 9 -15 0 -8 5 -15 10 -15 6 0
10 -18 10 -40 0 -29 4 -40 15 -40 18 0 22 76 4 82 -16 5 0 78 17 78 10 0 14
12 14 39 0 37 19 71 41 71 5 0 25 33 45 74 24 49 45 78 62 85 23 11 24 14 10
27 -14 14 -12 19 13 47 16 17 29 37 29 44 0 7 4 13 10 13 10 0 27 13 87 68 19
17 39 32 44 32 4 0 11 9 14 20 3 11 15 20 25 20 10 0 22 5 25 10 3 6 15 10 26
10 10 0 19 6 19 13 0 8 19 34 43 60 l43 45 10 -31 c9 -31 23 -39 82 -41 17 0
32 -4 32 -8 0 -20 58 -6 82 20 38 41 68 89 61 96 -3 3 -2 6 4 6 6 0 9 8 6 19
-4 16 -9 17 -39 8 -19 -6 -34 -16 -34 -23 0 -8 -8 -10 -22 -6 -29 7 -38 20
-38 54 0 18 -7 29 -20 33 -20 6 -29 35 -11 35 6 0 34 -13 64 -30 65 -36 68
-36 85 -9 11 18 11 24 -2 37 -11 13 -12 22 -5 35 10 17 12 16 28 -5 10 -13 20
-31 24 -40 3 -9 15 -21 25 -27 17 -9 27 -1 76 62 38 48 79 85 124 114 71 45
87 51 79 29z m2940 -59 c-1 -25 -9 -48 -22 -62 -38 -41 -135 -172 -135 -183 0
-5 -8 -17 -18 -28 -9 -10 -23 -32 -31 -49 -8 -17 -16 -25 -18 -17 -3 7 1 20 9
29 10 13 10 17 0 20 -6 3 -9 9 -6 15 4 6 10 5 15 -3 5 -8 9 -9 9 -4 0 16 -18
40 -25 33 -4 -4 -8 -18 -9 -31 0 -14 -5 -23 -10 -20 -12 8 1 105 15 114 7 4 9
16 6 28 -3 12 -1 19 4 15 5 -3 9 -1 9 5 0 6 6 8 14 5 19 -7 37 26 29 54 -3 13
-1 22 6 22 6 0 11 -4 11 -10 0 -5 4 -10 10 -10 6 0 5 11 -3 27 -9 21 -9 27 1
31 7 2 19 10 26 18 12 11 15 11 20 -1 7 -19 26 -19 26 0 0 8 5 15 11 15 6 0 8
8 5 18 -5 16 -2 18 23 14 28 -4 30 -7 28 -45z m-1331 -369 c-4 -24 -12 -54
-19 -68 -7 -14 -12 -46 -12 -72 0 -25 -3 -44 -7 -42 -10 7 -21 -82 -14 -112 9
-33 -2 -73 -15 -53 -5 9 -6 0 -3 -22 6 -38 -28 -126 -53 -136 -7 -3 -13 -13
-13 -22 0 -9 -7 -24 -15 -34 -7 -11 -17 -36 -20 -58 -4 -21 -10 -39 -15 -39
-4 0 -6 -9 -3 -20 3 -11 1 -26 -5 -33 -6 -7 -9 -35 -7 -62 3 -36 1 -45 -6 -35
-8 11 -9 8 -5 -12 7 -32 -2 -80 -14 -73 -5 3 -6 -4 -3 -15 9 -33 -6 -90 -23
-90 -11 0 -13 -6 -9 -19 3 -11 2 -22 -3 -25 -4 -2 -7 -25 -7 -50 1 -25 -2 -46
-6 -46 -5 0 -12 -12 -15 -27 -4 -16 -15 -45 -25 -65 -10 -20 -16 -45 -13 -55
5 -15 4 -16 -5 -3 -8 12 -11 5 -12 -30 -1 -25 -1 -60 0 -78 2 -21 -3 -34 -13
-38 -12 -4 -16 -20 -16 -55 0 -27 -4 -49 -9 -49 -5 0 -12 -15 -16 -32 -3 -18
-15 -70 -26 -116 -12 -46 -18 -90 -15 -98 9 -24 -12 -54 -38 -54 -22 0 -23 3
-15 33 5 17 23 84 40 147 17 63 37 142 45 175 7 33 23 94 34 135 33 119 70
260 85 325 40 177 126 518 134 533 5 9 17 46 25 82 9 36 30 115 47 175 16 61
36 135 44 165 26 106 54 153 41 68z m-7946 -38 c10 -5 42 -10 71 -11 75 -1
341 -26 359 -33 8 -4 53 -11 100 -16 168 -21 169 -21 152 -46 -10 -16 -304 -4
-417 16 -179 32 -197 37 -207 52 -5 8 -11 9 -15 3 -11 -15 -78 -18 -102 -5
-26 13 -27 37 -3 43 29 8 43 7 62 -3z m7611 -119 c-7 -12 -15 -21 -19 -21 -4
0 -9 -10 -9 -22 -1 -13 -7 -24 -13 -26 -5 -2 -10 -10 -10 -18 0 -8 -25 -56
-55 -106 -30 -50 -55 -95 -55 -99 0 -4 -6 -12 -14 -16 -7 -4 -35 -44 -61 -88
-50 -81 -86 -125 -105 -125 -5 0 -10 -5 -10 -10 0 -6 -11 -8 -25 -4 -22 5 -25
3 -25 -20 0 -19 -5 -26 -20 -26 -23 0 -27 18 -5 26 8 4 15 16 15 28 0 12 9 25
22 31 27 12 65 66 77 111 5 18 21 48 35 67 14 19 26 39 26 45 0 7 4 12 10 12
5 0 23 20 40 45 17 25 36 44 43 42 7 -1 13 10 15 26 2 19 9 27 22 27 12 0 22
9 26 24 3 14 14 32 25 42 10 9 19 23 19 30 0 7 9 16 20 19 12 4 20 15 20 28 0
15 3 18 11 10 8 -8 8 -17 0 -32z m-516 -183 c-4 -13 -15 -32 -24 -43 -22 -26
-48 -86 -65 -153 -11 -45 -11 -54 0 -59 21 -8 17 -30 -6 -36 -23 -6 -27 -27
-5 -27 27 0 16 -29 -12 -32 -17 -2 -32 -12 -38 -25 -5 -13 -18 -23 -27 -23
-10 0 -18 -6 -18 -13 0 -8 -9 -22 -20 -32 -11 -10 -20 -24 -20 -32 0 -7 -8
-16 -17 -20 -31 -10 -114 -105 -108 -124 7 -20 -14 -30 -47 -22 -38 10 -49 24
-46 62 2 37 53 115 69 105 5 -3 9 8 9 25 0 16 6 36 13 43 8 7 17 25 20 40 4
15 14 33 22 42 8 8 15 19 15 23 0 5 11 19 25 31 14 13 23 27 20 32 -3 5 17 32
45 61 27 28 53 61 56 75 3 13 14 24 23 24 9 0 27 18 41 40 13 22 32 40 41 40
10 0 21 5 24 10 3 6 13 10 21 10 11 0 13 -6 9 -22z m-675 -378 c9 -17 8 -20
-8 -20 -16 0 -21 -10 -27 -52 -4 -29 -8 -82 -9 -118 0 -36 -3 -67 -6 -70 -10
-10 -31 -45 -36 -62 -10 -29 -21 -21 -29 19 -4 21 -11 41 -17 44 -7 4 -6 13 1
27 6 11 11 30 11 42 0 20 36 81 53 88 4 2 7 30 7 63 0 56 1 59 25 59 14 0 29
-8 35 -20z m779 -142 c-4 -24 -13 -72 -19 -108 -13 -74 -37 -148 -57 -171 -7
-8 -13 -22 -13 -30 0 -8 -5 -20 -12 -27 -6 -6 -13 -22 -15 -34 -1 -13 -23 -63
-47 -113 -25 -49 -52 -110 -61 -135 -23 -62 -57 -132 -73 -149 -7 -7 -16 -26
-19 -42 -3 -16 -9 -29 -14 -29 -15 0 -10 -38 6 -44 9 -3 80 -15 158 -26 120
-18 173 -28 242 -44 6 -2 31 -6 58 -11 42 -6 76 -25 47 -25 -6 0 -8 -5 -5 -10
4 -6 -12 -38 -34 -73 -23 -34 -41 -67 -41 -74 0 -7 -4 -13 -10 -13 -5 0 -7 -7
-4 -15 4 -8 -3 -23 -13 -33 -11 -9 -28 -37 -39 -62 -29 -69 -43 -81 -74 -65
-14 8 -19 14 -12 15 8 0 12 15 12 43 0 34 -5 48 -26 66 -21 18 -28 20 -35 10
-5 -8 -9 -20 -9 -26 0 -7 -11 -13 -24 -13 -16 0 -27 -7 -31 -19 -3 -11 -27
-33 -52 -50 -37 -25 -56 -30 -97 -30 -28 1 -57 6 -65 12 -7 6 -39 11 -71 12
-53 0 -59 -3 -85 -34 -16 -18 -35 -39 -42 -46 -7 -8 -13 -23 -13 -34 0 -12 -4
-21 -9 -21 -5 0 -14 -13 -21 -30 -7 -16 -16 -30 -21 -30 -13 0 -22 22 -12 29
13 8 66 149 59 159 -2 4 4 27 14 50 11 23 22 58 26 77 3 19 11 35 16 35 7 0 8
15 4 40 -5 32 -3 40 9 40 19 0 19 5 -2 41 -16 26 -16 31 -3 39 13 8 13 13 -3
39 -9 16 -17 31 -17 34 0 3 24 8 53 12 28 3 70 15 93 25 36 16 43 25 53 67 7
26 23 69 36 94 14 25 22 48 20 51 -3 3 1 18 10 34 8 16 15 37 15 47 0 10 9 36
19 58 11 22 23 53 26 69 4 17 11 30 16 30 5 0 9 5 9 10 0 6 9 29 19 53 11 23
24 59 31 79 6 21 16 40 21 43 5 4 9 16 9 29 0 12 19 60 43 107 23 46 49 101
56 122 20 50 30 47 20 -5z m1091 -1535 c0 -9 -14 -45 -30 -80 -22 -46 -35 -63
-48 -61 -12 2 -18 -5 -20 -24 -5 -41 -26 -53 -56 -31 -14 10 -23 24 -21 32 3
7 1 19 -5 26 -8 10 -4 14 16 19 14 4 29 5 32 2 7 -8 31 26 32 44 0 16 34 50
49 50 6 0 13 9 16 20 8 24 35 27 35 3z m-2869 -37 c6 -19 4 -35 -6 -49 -7 -10
-12 -24 -9 -31 2 -6 -5 -17 -17 -24 -18 -12 -23 -12 -31 0 -7 10 -11 10 -15 1
-9 -24 -8 -28 7 -28 31 0 19 -20 -13 -23 -27 -2 -37 2 -50 22 -14 21 -14 26
-2 36 10 8 15 31 15 64 l0 51 20 -25 c11 -14 18 -30 16 -36 -3 -7 3 -10 16 -6
11 3 24 -1 29 -9 6 -9 9 -10 9 -2 0 7 -9 17 -20 23 -20 11 -28 40 -10 40 5 0
7 7 3 16 -4 12 0 15 22 12 22 -2 31 -10 36 -32z m2689 -165 c0 -6 5 -20 12
-30 9 -15 7 -24 -11 -50 -12 -17 -27 -28 -32 -25 -6 3 -13 -3 -16 -15 -6 -23
-19 -28 -26 -8 -4 9 -8 9 -16 -3 -13 -18 -5 -30 20 -30 10 0 19 -7 19 -15 0
-11 -7 -14 -25 -9 -27 7 -30 2 -15 -26 23 -44 -22 -97 -57 -68 -11 9 -11 14 3
29 10 11 24 19 33 20 10 0 12 2 4 6 -20 7 -17 113 2 113 9 0 15 9 15 24 0 14
4 27 9 30 5 3 12 17 15 31 10 38 38 64 54 49 6 -7 12 -17 12 -23z m-2670 -92
c0 -17 -10 -30 -29 -42 -16 -10 -31 -27 -33 -40 -2 -12 -9 -21 -17 -19 -7 1
-19 -2 -27 -9 -9 -7 -68 -10 -176 -9 -89 0 -163 2 -165 3 -8 9 12 47 25 47 16
0 62 48 62 66 0 17 45 34 61 23 19 -12 52 -11 44 1 -3 6 -1 10 4 10 6 0 11 -4
11 -10 0 -14 20 -12 54 5 15 8 32 13 36 10 4 -3 11 2 14 10 4 11 13 14 30 9
14 -3 32 -2 41 4 23 12 65 -26 65 -59z m-8455 -274 c62 -6 212 -24 295 -35
120 -17 137 -19 300 -41 85 -11 202 -26 260 -34 58 -8 158 -20 223 -27 71 -7
116 -16 114 -23 -6 -17 -128 -8 -517 40 -107 13 -229 27 -270 30 -147 12 -533
74 -580 94 -24 10 35 8 175 -4z m7329 -2 c4 -4 27 -6 52 -4 30 2 54 -3 71 -14
28 -19 123 -30 123 -15 0 5 -10 11 -22 13 -17 3 -14 5 9 6 25 1 31 -2 26 -15
-4 -12 0 -14 23 -8 26 7 28 6 15 -9 -7 -9 -30 -21 -50 -27 -41 -11 -71 -31
-117 -79 -30 -31 -35 -33 -76 -25 -23 4 -57 6 -74 5 -25 -1 -33 3 -37 20 -5
20 -10 21 -61 16 -43 -4 -56 -2 -56 8 0 14 -45 29 -60 20 -5 -3 -11 -1 -15 5
-3 5 -15 10 -25 10 -10 0 -21 6 -24 13 -5 9 -7 9 -12 0 -4 -10 -9 -9 -21 3
-26 26 3 43 97 55 47 6 108 14 135 19 68 10 90 11 99 3z m-2304 -606 c28 0
231 -15 300 -22 143 -14 201 -18 393 -25 117 -5 262 -8 322 -8 220 0 621 8
653 13 41 7 41 -6 2 -65 -17 -25 -38 -65 -47 -90 -9 -25 -32 -69 -51 -98 l-34
-54 -48 7 -48 7 -31 -65 c-17 -36 -31 -70 -31 -76 0 -5 -8 -14 -17 -20 -27
-14 -286 -22 -848 -26 -280 -3 -580 -9 -666 -15 -132 -9 -168 -8 -230 5 -41 8
-82 15 -92 15 -10 0 -33 6 -52 14 l-34 15 13 43 c8 24 24 77 36 118 37 124 72
201 97 213 16 7 37 7 68 0 25 -6 48 -6 51 -2 3 5 12 9 19 9 16 0 28 9 108 78
48 42 51 44 96 36 25 -4 57 -7 71 -7z m6290 -136 c0 -6 -5 -13 -10 -16 -6 -3
-7 -17 -4 -31 5 -19 2 -24 -14 -24 -15 0 -19 -5 -15 -20 4 -13 -1 -22 -13 -27
-32 -11 -74 -46 -74 -60 0 -7 -6 -12 -12 -10 -7 1 -14 -8 -16 -20 -2 -13 -10
-23 -17 -23 -16 0 -97 -83 -106 -109 -3 -9 -10 -16 -16 -16 -20 0 -88 -41
-111 -67 -13 -16 -28 -28 -34 -28 -15 0 -35 -24 -31 -36 4 -13 -55 -25 -63
-13 -11 18 48 99 72 99 7 0 16 9 19 20 4 11 24 29 46 40 21 11 39 24 39 29 0
5 9 7 21 4 12 -4 25 0 30 8 7 12 9 12 9 -1 0 -8 10 5 22 30 12 25 30 51 39 57
9 7 20 24 23 38 4 14 12 25 19 25 7 0 32 18 55 40 22 22 48 40 56 40 9 0 12 7
9 20 -3 10 2 26 11 35 9 9 16 13 16 9 0 -5 5 -3 12 4 14 14 38 16 38 3z"/>
<path d="M7761 5501 c-12 -16 -21 -34 -21 -40 0 -6 -4 -11 -10 -11 -5 0 -19
-33 -30 -72 -12 -40 -25 -81 -31 -90 -5 -10 -9 -25 -9 -35 0 -9 -6 -24 -14
-32 -7 -9 -21 -42 -31 -74 -16 -50 -16 -60 -4 -68 8 -5 14 -25 14 -48 0 -45
15 -55 30 -22 5 11 13 21 17 21 5 0 8 7 8 15 0 9 7 26 14 38 8 12 22 49 30 81
9 33 20 64 26 70 5 5 10 20 10 33 0 13 5 23 10 23 6 0 10 10 10 23 0 12 9 45
19 72 16 43 18 58 8 98 -6 26 -14 47 -18 47 -4 0 -17 -13 -28 -29z"/>
</g>
</svg>
